<svg width="17" height="15" viewBox="0 0 17 15" fill="none" xmlns="http://www.w3.org/2000/svg">
<path d="M15.9375 0H1.0625C0.478125 0 0 0.482143 0 1.07143V13.9286C0 14.5179 0.478125 15 1.0625 15H15.9375C16.5219 15 17 14.5179 17 13.9286V1.07143C17 0.482143 16.5219 0 15.9375 0ZM15.9588 6.26786L13.8338 9.48214C13.5894 9.85714 12.9731 9.85714 12.7288 9.48214L10.0938 5.49643L6.39625 11.0893C6.15188 11.4643 5.53562 11.4643 5.29125 11.0893L3.71875 8.71071L2.14625 11.0893C2.01875 11.2821 1.80625 11.3786 1.59375 11.3786C1.46625 11.3786 1.33875 11.3464 1.22188 11.2714C1.14923 11.2223 1.08692 11.1591 1.03851 11.0856C0.990098 11.0121 0.956543 10.9297 0.939764 10.8432C0.922986 10.7566 0.923313 10.6675 0.940728 10.581C0.958142 10.4946 0.992302 10.4124 1.04125 10.3393L3.16625 7.125C3.41062 6.75 4.02688 6.75 4.27125 7.125L5.84375 9.50357L9.54125 3.91071C9.78562 3.53571 10.4019 3.53571 10.6463 3.91071L13.2812 7.89643L14.8537 5.51786C15.0556 5.20714 15.47 5.12143 15.7781 5.33571C16.0756 5.53929 16.1606 5.95714 15.9588 6.26786Z" fill="black"/>
</svg>
