<svg width="15" height="15" viewBox="0 0 15 15" fill="none" xmlns="http://www.w3.org/2000/svg">
<path fill-rule="evenodd" clip-rule="evenodd" d="M0.181667 0.91C-4.47035e-08 1.26667 0 1.73333 0 2.66667V3.17833L14.9917 1.815C14.9758 1.40833 14.9333 1.13667 14.8183 0.91C14.6585 0.596411 14.4036 0.341453 14.09 0.181667C13.7333 -4.47035e-08 13.2667 0 12.3333 0H2.66667C1.73333 0 1.26667 -4.47035e-08 0.91 0.181667C0.596411 0.341453 0.341453 0.596411 0.181667 0.91ZM15 3.48833L10.9458 3.85667L13.0342 14.9958C13.5275 14.985 13.8367 14.9475 14.09 14.8183C14.4036 14.6585 14.6585 14.4036 14.8183 14.09C15 13.7333 15 13.2667 15 12.3333V3.48833ZM11.34 15L9.27833 4.00833L0 4.85167V12.3333C0 13.2667 -4.47035e-08 13.7333 0.181667 14.09C0.341453 14.4036 0.596411 14.6585 0.91 14.8183C1.26667 15 1.73333 15 2.66667 15H11.34ZM7.91667 10.025C7.91667 11.8233 6.13333 13.0867 5.35583 13.5525C5.24834 13.617 5.12535 13.6511 5 13.6511C4.87465 13.6511 4.75166 13.617 4.64417 13.5525C3.86667 13.0867 2.08333 11.8233 2.08333 10.0242C2.08333 8.26 3.49667 7.08333 5 7.08333C6.55583 7.08333 7.91667 8.26 7.91667 10.025Z" fill="black"/>
</svg>
