<svg width="17" height="17" viewBox="0 0 17 17" fill="none" xmlns="http://www.w3.org/2000/svg">
<path fill-rule="evenodd" clip-rule="evenodd" d="M10.1733 2.35833C10.5511 2.475 10.9122 2.625 11.2567 2.80833L12.7842 1.89167C12.9434 1.79613 13.1301 1.75655 13.3144 1.7792C13.4988 1.80184 13.6702 1.88542 13.8017 2.01667L14.65 2.865C14.7812 2.99642 14.8648 3.16791 14.8875 3.35225C14.9101 3.5366 14.8705 3.72322 14.775 3.8825L13.8583 5.41C14.0417 5.75444 14.1917 6.11556 14.3083 6.49333L16.0358 6.92583C16.216 6.97098 16.376 7.07504 16.4903 7.22149C16.6046 7.36795 16.6667 7.54839 16.6667 7.73417V8.9325C16.6667 9.11827 16.6046 9.29872 16.4903 9.44517C16.376 9.59163 16.216 9.69569 16.0358 9.74083L14.3083 10.1733C14.1917 10.5511 14.0417 10.9122 13.8583 11.2567L14.775 12.7842C14.8705 12.9434 14.9101 13.1301 14.8875 13.3144C14.8648 13.4988 14.7812 13.6702 14.65 13.8017L13.8017 14.65C13.6702 14.7812 13.4988 14.8648 13.3144 14.8875C13.1301 14.9101 12.9434 14.8705 12.7842 14.775L11.2567 13.8583C10.9122 14.0417 10.5511 14.1917 10.1733 14.3083L9.74083 16.0358C9.69569 16.216 9.59163 16.376 9.44517 16.4903C9.29872 16.6046 9.11827 16.6667 8.9325 16.6667H7.73417C7.54839 16.6667 7.36795 16.6046 7.22149 16.4903C7.07504 16.376 6.97098 16.216 6.92583 16.0358L6.49333 14.3083C6.11891 14.1926 5.7562 14.042 5.41 13.8583L3.8825 14.775C3.72322 14.8705 3.5366 14.9101 3.35225 14.8875C3.16791 14.8648 2.99642 14.7812 2.865 14.65L2.01667 13.8017C1.88542 13.6702 1.80184 13.4988 1.7792 13.3144C1.75655 13.1301 1.79613 12.9434 1.89167 12.7842L2.80833 11.2567C2.6247 10.9105 2.47404 10.5478 2.35833 10.1733L0.630833 9.74083C0.450766 9.69573 0.290915 9.59179 0.176636 9.4455C0.0623558 9.29922 0.000190536 9.11896 0 8.93333V7.735C4.88369e-06 7.54923 0.0620851 7.36878 0.176379 7.22233C0.290674 7.07587 0.450628 6.97181 0.630833 6.92667L2.35833 6.49417C2.475 6.11639 2.625 5.75528 2.80833 5.41083L1.89167 3.88333C1.79613 3.72406 1.75655 3.53743 1.7792 3.35309C1.80184 3.16875 1.88542 2.99725 2.01667 2.86583L2.865 2.01667C2.99642 1.88542 3.16791 1.80184 3.35225 1.7792C3.5366 1.75655 3.72322 1.79613 3.8825 1.89167L5.41 2.80833C5.75444 2.625 6.11556 2.475 6.49333 2.35833L6.92583 0.630833C6.97094 0.450766 7.07488 0.290915 7.22117 0.176636C7.36745 0.0623558 7.5477 0.000190536 7.73333 0H8.93167C9.11744 4.88369e-06 9.29789 0.0620851 9.44434 0.176379C9.59079 0.290674 9.69486 0.450628 9.74 0.630833L10.1733 2.35833ZM8.33333 11.6667C9.21739 11.6667 10.0652 11.3155 10.6904 10.6904C11.3155 10.0652 11.6667 9.21739 11.6667 8.33333C11.6667 7.44928 11.3155 6.60143 10.6904 5.97631C10.0652 5.35119 9.21739 5 8.33333 5C7.44928 5 6.60143 5.35119 5.97631 5.97631C5.35119 6.60143 5 7.44928 5 8.33333C5 9.21739 5.35119 10.0652 5.97631 10.6904C6.60143 11.3155 7.44928 11.6667 8.33333 11.6667Z" fill="black"/>
</svg>
