<svg width="9" height="9" viewBox="0 0 9 9" fill="none" xmlns="http://www.w3.org/2000/svg">
<g clip-path="url(#clip0_810_518)">
<path d="M4.5 8.75C6.84721 8.75 8.75 6.84721 8.75 4.5C8.75 2.15279 6.84721 0.25 4.5 0.25C2.15279 0.25 0.25 2.15279 0.25 4.5C0.25 6.84721 2.15279 8.75 4.5 8.75Z" fill="white" stroke="#007CFF" stroke-width="0.5"/>
<mask id="mask0_810_518" style="mask-type:luminance" maskUnits="userSpaceOnUse" x="0" y="0" width="9" height="9">
<path d="M9 0H0V9H9V0Z" fill="white"/>
</mask>
<g mask="url(#mask0_810_518)">
<path d="M4.5 8.75C6.84721 8.75 8.75 6.84721 8.75 4.5C8.75 2.15279 6.84721 0.25 4.5 0.25C2.15279 0.25 0.25 2.15279 0.25 4.5C0.25 6.84721 2.15279 8.75 4.5 8.75Z" fill="white" stroke="#007CFF" stroke-width="0.5"/>
</g>
<path d="M5.74968 4.2915H3.24968V3.24984H5.74968M5.43718 5.5415C5.3543 5.5415 5.27481 5.50858 5.21621 5.44997C5.1576 5.39137 5.12468 5.31188 5.12468 5.229C5.12468 5.14612 5.1576 5.06664 5.21621 5.00803C5.27481 4.94943 5.3543 4.9165 5.43718 4.9165C5.52006 4.9165 5.59954 4.94943 5.65815 5.00803C5.71675 5.06664 5.74968 5.14612 5.74968 5.229C5.74968 5.31188 5.71675 5.39137 5.65815 5.44997C5.59954 5.50858 5.52006 5.5415 5.43718 5.5415ZM3.56218 5.5415C3.4793 5.5415 3.39981 5.50858 3.34121 5.44997C3.2826 5.39137 3.24968 5.31188 3.24968 5.229C3.24968 5.14612 3.2826 5.06664 3.34121 5.00803C3.39981 4.94943 3.4793 4.9165 3.56218 4.9165C3.64506 4.9165 3.72454 4.94943 3.78315 5.00803C3.84175 5.06664 3.87468 5.14612 3.87468 5.229C3.87468 5.31188 3.84175 5.39137 3.78315 5.44997C3.72454 5.50858 3.64506 5.5415 3.56218 5.5415ZM2.83301 5.33317C2.83301 5.5165 2.91426 5.68109 3.04135 5.79567V6.1665C3.04135 6.22176 3.06329 6.27475 3.10236 6.31382C3.14143 6.35289 3.19443 6.37484 3.24968 6.37484H3.45801C3.51327 6.37484 3.56626 6.35289 3.60533 6.31382C3.6444 6.27475 3.66635 6.22176 3.66635 6.1665V5.95817H5.33301V6.1665C5.33301 6.22176 5.35496 6.27475 5.39403 6.31382C5.4331 6.35289 5.48609 6.37484 5.54135 6.37484H5.74968C5.80493 6.37484 5.85792 6.35289 5.89699 6.31382C5.93606 6.27475 5.95801 6.22176 5.95801 6.1665V5.79567C6.0851 5.68109 6.16635 5.5165 6.16635 5.33317V3.24984C6.16635 2.52067 5.42051 2.4165 4.49968 2.4165C3.57885 2.4165 2.83301 2.52067 2.83301 3.24984V5.33317Z" fill="#007CFF"/>
</g>
<defs>
<clipPath id="clip0_810_518">
<rect width="9" height="9" fill="white"/>
</clipPath>
</defs>
</svg>
