<svg width="14" height="12" viewBox="0 0 14 12" fill="none" xmlns="http://www.w3.org/2000/svg">
<path d="M6.66667 8.22268C6.55556 8.22268 6.45139 8.208 6.35417 8.17864C6.25694 8.14927 6.16667 8.09884 6.08333 8.02733L3.08333 5.46995C2.91667 5.32787 2.83667 5.16212 2.84333 4.97268C2.85 4.78324 2.93 4.61749 3.08333 4.47541C3.25 4.33334 3.44806 4.25946 3.6775 4.25377C3.90694 4.24809 4.10472 4.31605 4.27083 4.45765L5.83333 5.78962V0.710385C5.83333 0.50911 5.91333 0.340513 6.07333 0.204593C6.23333 0.0686728 6.43111 0.000476038 6.66667 2.44959e-06C6.90222 -0.000471139 7.10028 0.0677257 7.26083 0.204593C7.42139 0.34146 7.50111 0.510057 7.5 0.710385V5.78962L9.0625 4.45765C9.22917 4.31558 9.42722 4.24738 9.65667 4.25306C9.88611 4.25875 10.0839 4.33286 10.25 4.47541C10.4028 4.61749 10.4828 4.78324 10.49 4.97268C10.4972 5.16212 10.4172 5.32787 10.25 5.46995L7.25 8.02733C7.16667 8.09836 7.07639 8.1488 6.97917 8.17864C6.88194 8.20847 6.77778 8.22315 6.66667 8.22268ZM1.66667 11.3661C1.20833 11.3661 0.816111 11.2271 0.49 10.9491C0.163889 10.6711 0.000555556 10.3365 0 9.94536V8.52459C0 8.32332 0.0800001 8.15472 0.24 8.0188C0.4 7.88288 0.597778 7.81468 0.833333 7.81421C1.06889 7.81374 1.26694 7.88193 1.4275 8.0188C1.58806 8.15567 1.66778 8.32427 1.66667 8.52459V9.94536H11.6667V8.52459C11.6667 8.32332 11.7467 8.15472 11.9067 8.0188C12.0667 7.88288 12.2644 7.81468 12.5 7.81421C12.7356 7.81374 12.9336 7.88193 13.0942 8.0188C13.2547 8.15567 13.3344 8.32427 13.3333 8.52459V9.94536C13.3333 10.3361 13.1703 10.6707 12.8442 10.9491C12.5181 11.2276 12.1256 11.3666 11.6667 11.3661H1.66667Z" fill="#212529"/>
</svg>
